<svg width="24" height="24" viewBox="0 0 24 24" fill="none" xmlns="http://www.w3.org/2000/svg">
<path d="M17.549 7.26883C17.4658 7.26039 17.3823 7.26039 17.2991 7.26883C16.0368 7.20924 15.0391 6.16893 15.0391 4.89C15.0391 3.57502 16.1063 2.5 17.4291 2.5C18.7435 2.5 19.8182 3.56642 19.8191 4.88843C19.81 6.16964 18.8103 7.20927 17.549 7.26883Z" fill="white" stroke="white"/>
<path d="M20.5116 14.2843L20.5114 14.2845C19.6713 14.847 18.5179 15.1264 17.3654 15.0953C17.6059 14.3887 17.7315 13.6353 17.7396 12.8551L17.7396 12.8551V12.8499C17.7396 12.0323 17.6025 11.2409 17.3348 10.5103C18.5031 10.4745 19.6557 10.7541 20.5031 11.3165L20.5031 11.3165L20.5047 11.3176C21.1903 11.7688 21.465 12.315 21.4659 12.7971C21.4667 13.2797 21.1934 13.8283 20.5116 14.2843Z" fill="white" stroke="white"/>
<path d="M6.6701 7.26883C6.58689 7.26039 6.50342 7.26039 6.42021 7.26883C5.1579 7.20924 4.16016 6.16893 4.16016 4.89C4.16016 3.56501 5.22743 2.5 6.54016 2.5C7.86401 2.5 8.93016 3.56614 8.93016 4.89C8.93016 6.16893 7.93241 7.20924 6.6701 7.26883Z" fill="white" stroke="white"/>
<path d="M3.45588 11.3165L3.45589 11.3165L3.45828 11.3149C4.2485 10.7832 5.33771 10.5017 6.4455 10.5073C6.18529 11.2384 6.04914 12.0276 6.04914 12.8501C6.04914 13.6389 6.17838 14.3979 6.41848 15.1078C5.32642 15.1066 4.25889 14.8212 3.45484 14.293C2.7688 13.8367 2.49414 13.2881 2.49414 12.8051C2.49414 12.3218 2.76907 11.773 3.45588 11.3165Z" fill="white" stroke="white"/>
<path d="M12.1208 15.87C12.0408 15.86 11.9508 15.86 11.8608 15.87C10.0208 15.81 8.55078 14.3 8.55078 12.44C8.56078 10.54 10.0908 9 12.0008 9C13.9008 9 15.4408 10.54 15.4408 12.44C15.4308 14.3 13.9708 15.81 12.1208 15.87Z" fill="white"/>
<path d="M8.87078 17.9401C7.36078 18.9501 7.36078 20.6101 8.87078 21.6101C10.5908 22.7601 13.4108 22.7601 15.1308 21.6101C16.6408 20.6001 16.6408 18.9401 15.1308 17.9401C13.4208 16.7901 10.6008 16.7901 8.87078 17.9401Z" fill="white"/>
</svg>
