<svg width="24" height="24" viewBox="0 0 24 24" fill="none" xmlns="http://www.w3.org/2000/svg">
<path d="M20.0001 5.84989C20.0001 7.20851 18.8987 8.30989 17.5401 8.30989C16.1815 8.30989 15.0801 7.20851 15.0801 5.84989C15.0801 4.49127 16.1815 3.38989 17.5401 3.38989C18.8987 3.38989 20.0001 4.49127 20.0001 5.84989Z" fill="white" stroke="white"/>
<path d="M8.92 5.84989C8.92 7.20851 7.81862 8.30989 6.46 8.30989C5.10138 8.30989 4 7.20851 4 5.84989C4 4.49127 5.10138 3.38989 6.46 3.38989C7.81862 3.38989 8.92 4.49127 8.92 5.84989Z" fill="white" stroke="white"/>
<path d="M20.0001 18.1499C20.0001 19.5086 18.8987 20.6099 17.5401 20.6099C16.1815 20.6099 15.0801 19.5086 15.0801 18.1499C15.0801 16.7913 16.1815 15.6899 17.5401 15.6899C18.8987 15.6899 20.0001 16.7913 20.0001 18.1499Z" fill="white" stroke="white"/>
<path d="M8.92 18.1499C8.92 19.5086 7.81862 20.6099 6.46 20.6099C5.10138 20.6099 4 19.5086 4 18.1499C4 16.7913 5.10138 15.6899 6.46 15.6899C7.81862 15.6899 8.92 16.7913 8.92 18.1499Z" fill="white" stroke="white"/>
</svg>
