<svg width="24" height="24" viewBox="0 0 24 24" fill="none" xmlns="http://www.w3.org/2000/svg">
<path d="M15.8949 9.50891L15.8949 9.5089L15.8926 9.51018L12.8226 11.1702L12.821 11.1711C12.5652 11.3105 12.2877 11.38 12.0004 11.38C11.7131 11.38 11.4355 11.3105 11.1798 11.171L11.1776 11.1699L4.88915 7.78069C4.88894 7.78058 4.88873 7.78046 4.88853 7.78035C4.59345 7.61968 4.40039 7.3006 4.40039 6.94C4.40039 6.57946 4.59339 6.26042 4.88838 6.09973C4.88864 6.09959 4.88889 6.09945 4.88915 6.09931L6.85731 5.04031L6.85844 5.03969L8.42734 4.19029L8.42844 4.18969L11.1773 2.71029L11.1773 2.71029L11.1798 2.70895C11.6906 2.43035 12.3102 2.43035 12.821 2.70895L12.8232 2.71015L19.1116 6.09931C19.1119 6.09944 19.1121 6.09956 19.1123 6.09968C19.4074 6.26036 19.6004 6.57943 19.6004 6.94C19.6004 7.30064 19.4073 7.61976 19.1121 7.78041C19.112 7.7805 19.1118 7.7806 19.1116 7.78069L17.3749 8.71891L17.3727 8.72009L15.8949 9.50891Z" fill="white" stroke="white"/>
<path d="M3.8274 10.3174L3.82315 10.3152C3.53482 10.1679 3.19863 10.183 2.90941 10.3579C2.63432 10.5242 2.4707 10.819 2.4707 11.15V16.68C2.4707 17.4509 2.89392 18.1375 3.584 18.4827L3.8274 10.3174ZM3.8274 10.3174L9.6771 13.2372C10.3687 13.5831 10.7887 14.2691 10.7807 15.0248L10.7807 15.0248V15.03V20.56C10.7807 20.8911 10.6171 21.1858 10.342 21.3522L10.3347 21.3566L10.3276 21.3612C10.1842 21.4547 10.0203 21.5 9.8507 21.5C9.70603 21.5 9.56286 21.4671 9.43431 21.4028L9.434 21.4027L3.58431 18.4828L3.8274 10.3174Z" fill="white" stroke="white"/>
<path d="M20.4173 18.4728L20.417 18.4729L14.5673 21.4028C14.5673 21.4028 14.5672 21.4029 14.5671 21.4029C14.5671 21.4029 14.5671 21.4029 14.567 21.4029C14.4386 21.4671 14.2955 21.5 14.1509 21.5C13.983 21.5 13.8151 21.4555 13.6559 21.356L13.6541 21.3549C13.3801 21.1853 13.2109 20.8854 13.2109 20.56V15.04C13.2109 14.2691 13.6341 13.5826 14.3242 13.2374C14.3243 13.2373 14.3244 13.2373 14.3245 13.2372L16.4737 12.1676L16.4745 12.1672L17.9745 11.4172L20.1745 10.3172L20.1746 10.3172L20.1785 10.3152C20.4733 10.1645 20.8058 10.1781 21.0851 10.3534L21.085 10.3535L21.0878 10.3551C21.3618 10.5248 21.5309 10.8246 21.5309 11.15V16.68C21.5309 17.4399 21.1086 18.1272 20.4173 18.4728Z" fill="white" stroke="white"/>
<path d="M16.6563 9.10186L16.1354 9.37986L7.65383 4.60839L8.18414 4.32128L16.6563 9.10186Z" fill="white" stroke="white"/>
<path d="M17.75 10.97V13.24C17.75 13.65 17.41 13.99 17 13.99C16.59 13.99 16.25 13.65 16.25 13.24V11.72L17.75 10.97Z" fill="#1E1E1E"/>
</svg>
