<svg width="21" height="21" viewBox="0 0 21 21" fill="none" xmlns="http://www.w3.org/2000/svg">
<path d="M14.5 2V2.5H15H19.5V7.5H17.981H17.2669L17.5112 8.171L20.2572 15.716L20.2571 15.716L20.2605 15.7249C20.4317 16.169 20.5106 16.6434 20.4922 17.1191C20.4739 17.5947 20.3587 18.0617 20.1537 18.4913C19.9487 18.9209 19.6583 19.3042 19.3001 19.6177C18.9419 19.9312 18.5235 20.1684 18.0706 20.3147C17.6176 20.461 17.1395 20.5134 16.6656 20.4686C16.1917 20.4238 15.732 20.2828 15.3144 20.0543C14.8968 19.8257 14.5303 19.5144 14.2372 19.1394C13.944 18.7643 13.7305 18.3334 13.6096 17.873L13.5117 17.5H13.126H8.874H8.48699L8.38997 17.8747C8.19108 18.6427 7.73733 19.3204 7.103 19.7968C6.46868 20.2733 5.69137 20.5202 4.89837 20.4973C4.10537 20.4743 3.34366 20.1827 2.73799 19.6704C2.13231 19.158 1.71856 18.4551 1.56448 17.6769L1.51793 17.4418L1.3055 17.3308C1.06245 17.2039 0.858849 17.0127 0.716834 16.7781C0.57482 16.5436 0.499824 16.2745 0.5 16.0003V16V6C0.5 5.86739 0.552679 5.74021 0.646447 5.64645C0.740215 5.55268 0.867393 5.5 1 5.5H8C8.13261 5.5 8.25978 5.55268 8.35355 5.64645C8.44732 5.74022 8.5 5.86739 8.5 6V11C8.5 11.3978 8.65804 11.7794 8.93934 12.0607C9.22064 12.342 9.60217 12.5 10 12.5H12C12.3978 12.5 12.7794 12.342 13.0607 12.0607C13.342 11.7794 13.5 11.3978 13.5 11V2V1.5H13H10.5V0.5H14C14.1326 0.5 14.2598 0.552679 14.3536 0.646446C14.4473 0.740214 14.5 0.867391 14.5 1V2ZM16.9999 14.5H16.9998C16.4682 14.5002 15.9505 14.6698 15.5218 14.9843C15.0931 15.2987 14.7759 15.7417 14.6161 16.2488C14.4564 16.7558 14.4624 17.3006 14.6334 17.804C14.8044 18.3074 15.1314 18.7432 15.5669 19.0481C16.0025 19.353 16.5239 19.5111 17.0554 19.4994C17.5869 19.4877 18.1009 19.307 18.5226 18.9833C18.9444 18.6596 19.252 18.2099 19.4007 17.6995C19.5495 17.1891 19.5317 16.6446 19.3498 16.145L19.3499 16.145L19.3464 16.1358L19.3294 16.0918L19.3287 16.09C19.1456 15.6214 18.8254 15.219 18.4099 14.9353C17.9944 14.6517 17.503 14.4999 16.9999 14.5ZM7.5 7V6.5H7H2H1.5V7V9V9.5H2H7H7.5V9V7ZM18.5 4V3.5H18H15H14.5V4V6V6.5H15H18H18.5V6V4ZM5 14.5C4.33696 14.5 3.70107 14.7634 3.23223 15.2322C2.76339 15.7011 2.5 16.337 2.5 17C2.5 17.663 2.76339 18.2989 3.23223 18.7678C3.70107 19.2366 4.33696 19.5 5 19.5C5.66304 19.5 6.29893 19.2366 6.76777 18.7678C7.23661 18.2989 7.5 17.663 7.5 17C7.5 16.337 7.23661 15.7011 6.76777 15.2322C6.29893 14.7634 5.66304 14.5 5 14.5Z" stroke="#818386"/>
</svg>
