<svg width="24" height="24" viewBox="0 0 24 24" fill="none" xmlns="http://www.w3.org/2000/svg">
<path d="M18.9484 14.1917L18.9485 14.1917L18.9476 14.1819C18.933 14.0316 18.991 13.886 19.0934 13.7836L19.0936 13.7837L19.1029 13.7739C19.1803 13.6922 19.2949 13.64 19.4399 13.64H20.9375C20.9437 13.6406 20.9477 13.6417 20.9499 13.6425V14.6393C20.949 14.6395 20.9478 14.6398 20.9461 14.64H19.4999C19.1915 14.64 18.9655 14.4134 18.9484 14.1917Z" fill="white" stroke="white"/>
<path d="M16.9657 14.7973L16.9656 14.7973L16.9677 14.8046C17.2973 15.9838 18.4313 16.69 19.5792 16.69H20.4492C20.7231 16.69 20.9492 16.9162 20.9492 17.19V17.38C20.9492 19.1739 19.4831 20.64 17.6892 20.64H6.20922C4.41536 20.64 2.94922 19.1739 2.94922 17.38V10.65C2.94922 9.58353 3.46009 8.6397 4.24851 8.05054L4.24853 8.05056L4.25224 8.04773C4.79746 7.63233 5.47156 7.39001 6.20922 7.39001H17.6892C19.4831 7.39001 20.9492 8.85616 20.9492 10.65V11.09C20.9492 11.3639 20.7231 11.59 20.4492 11.59H19.4292C18.7373 11.59 18.0995 11.8623 17.6351 12.337C17.0158 12.9466 16.7184 13.8574 16.9657 14.7973Z" fill="white" stroke="white"/>
<path d="M14.0552 3.37326L15.6732 5.00976L8.18616 5.00001L9.80247 3.37372C10.9771 2.20891 12.8804 2.20876 14.0552 3.37326Z" fill="white" stroke="white"/>
</svg>
