<svg width="20" height="20" viewBox="0 0 20 20" fill="none" xmlns="http://www.w3.org/2000/svg">
<path d="M19.1721 6.43906L19.1723 6.43957C19.3749 7.21417 19.1656 7.86287 18.7247 8.32733C18.6377 8.41753 18.5451 8.49905 18.447 8.5722L18.246 8.72217V8.973V17C18.246 17.5967 18.0089 18.169 17.587 18.591C17.165 19.0129 16.5927 19.25 15.996 19.25H4.00399C3.40725 19.25 2.83495 19.0129 2.41299 18.591C1.99104 18.169 1.75399 17.5967 1.75399 17V8.974V8.72317L1.55292 8.5732C1.45533 8.50042 1.36307 8.41857 1.27611 8.32723L1.27605 8.32717C0.834856 7.86391 0.624764 7.21498 0.827734 6.43844L0.827825 6.43809L1.8718 2.43218C1.87181 2.43215 1.87182 2.43212 1.87182 2.43209C1.99745 1.9505 2.2792 1.52416 2.67299 1.21979C3.06675 0.915432 3.55031 0.750219 4.04799 0.75C4.04804 0.75 4.04811 0.75 4.04816 0.75L5.99299 0.75L15.9518 0.75C15.9518 0.75 15.9519 0.75 15.9519 0.75C15.9519 0.75 15.952 0.75 15.952 0.75C16.4497 0.750219 16.9332 0.915432 17.327 1.21979C17.7208 1.52417 18.0026 1.95056 18.1282 2.43218L19.1721 6.43906ZM10.3633 8.40246L9.99976 8.01804L9.63648 8.40269C9.58007 8.46242 9.52097 8.51904 9.45914 8.57261C8.98686 8.97903 8.36419 9.176 7.75099 9.176C7.13834 9.176 6.5154 8.97834 6.04268 8.57249C5.97983 8.51797 5.91973 8.46034 5.86262 8.39983L5.50194 8.01763L5.13815 8.39688C5.05156 8.48716 4.95706 8.56952 4.85581 8.64297C4.32387 9.02751 3.63895 9.16517 2.99277 9.10429C2.93734 9.09891 2.88204 9.09222 2.82693 9.0842L2.25499 9.00104V9.579V17C2.25499 17.9654 3.03706 18.75 4.00299 18.75H15.997C16.9636 18.75 17.746 17.9656 17.746 17V9.579V9.00079L17.1738 9.08423C17.1178 9.09241 17.0626 9.09908 17.0083 9.10428C16.3608 9.16522 15.676 9.0274 15.1453 8.64304L15.1442 8.64231C15.0423 8.56887 14.9471 8.48642 14.8599 8.39597L14.4953 8.01777L14.1356 8.40062C14.0789 8.46101 14.0191 8.51854 13.9567 8.573C13.4845 8.97915 12.862 9.176 12.249 9.176C11.6364 9.176 11.0134 8.97835 10.5407 8.57252C10.4788 8.51878 10.4196 8.46202 10.3633 8.40246Z" fill="white" stroke="white"/>
</svg>
