<svg width="24" height="24" viewBox="0 0 24 24" fill="none" xmlns="http://www.w3.org/2000/svg">
<path d="M13.9824 18.2495L15.4824 19.7495H8.51758L10.0176 18.2495H13.9824Z" fill="#484D57" stroke="#484D57" stroke-width="2.5"/>
<path d="M8.50195 16.0005C9.33038 16.0005 10.002 15.3289 10.002 14.5005C10.002 13.6721 9.33038 13.0005 8.50195 13.0005C7.67353 13.0005 7.00195 13.6721 7.00195 14.5005C7.00195 15.3289 7.67353 16.0005 8.50195 16.0005Z" fill="#484D57"/>
<path d="M15.5 16.0005C16.3284 16.0005 17 15.3289 17 14.5005C17 13.6721 16.3284 13.0005 15.5 13.0005C14.6716 13.0005 14 13.6721 14 14.5005C14 15.3289 14.6716 16.0005 15.5 16.0005Z" fill="#484D57"/>
</svg>
