<svg width="40" height="40" viewBox="0 0 40 40" fill="none" xmlns="http://www.w3.org/2000/svg">
<path d="M20 10.7332V16.2832" stroke="#484D57" stroke-width="2.5" stroke-miterlimit="10" stroke-linecap="round"/>
<path d="M20.0332 3.33325C13.8998 3.33325 8.93316 8.29992 8.93316 14.4333V17.9333C8.93316 19.0666 8.4665 20.7666 7.88316 21.7333L5.7665 25.2666C4.4665 27.4499 5.3665 29.8833 7.7665 30.6833C15.7332 33.3333 24.3498 33.3333 32.3165 30.6833C34.5665 29.9333 35.5332 27.2999 34.3165 25.2666L32.1998 21.7333C31.6165 20.7666 31.1498 19.0499 31.1498 17.9333V14.4333C31.1332 8.33325 26.1332 3.33325 20.0332 3.33325Z" stroke="#484D57" stroke-width="2.5" stroke-miterlimit="10" stroke-linecap="round"/>
<path d="M25.5497 31.3667C25.5497 34.4167 23.0497 36.9167 19.9997 36.9167C18.483 36.9167 17.083 36.2834 16.083 35.2834C15.083 34.2834 14.4497 32.8834 14.4497 31.3667" stroke="#484D57" stroke-width="2.5" stroke-miterlimit="10"/>
</svg>